<?xml version="1.0" encoding="UTF-8" standalone="no"?><svg width="18" height="24" viewBox="0 0 18 24" fill="none" xmlns="http://www.w3.org/2000/svg">
<path d="M3.82795 24H14.172C15.0816 24 15.9541 23.6386 16.5973 22.9954C17.2406 22.3521 17.6019 21.4797 17.6019 20.57V6.33002H14.172V20.57H0.397949C0.397949 21.4797 0.759324 22.3521 1.40257 22.9954C2.04582 23.6386 2.91826 24 3.82795 24V24Z" fill="white"/>
<path d="M14.172 0H3.82795C2.91826 0 2.04582 0.361374 1.40257 1.00462C0.759324 1.64787 0.397949 2.52031 0.397949 3.43V17.67H3.82795V3.43H17.6019C17.6019 2.52031 17.2406 1.64787 16.5973 1.00462C15.9541 0.361374 15.0816 0 14.172 0V0Z" fill="white"/>
</svg>
