<?xml version="1.0" encoding="UTF-8" standalone="no"?><svg width="28" height="20" viewBox="0 0 28 20" fill="none" xmlns="http://www.w3.org/2000/svg">
<path d="M16 9H12V5H10V9H6V11H10V15H12V11H16V9Z" fill="white"/>
<path d="M19 20H2C1.46973 19.9995 0.961329 19.7886 0.586371 19.4136C0.211413 19.0387 0.000529477 18.5303 0 18V2C0.000529477 1.46973 0.211413 0.961329 0.586371 0.586371C0.961329 0.211413 1.46973 0.000529477 2 0H19C19.5303 0.000529477 20.0387 0.211413 20.4136 0.586371C20.7886 0.961329 20.9995 1.46973 21 2V6.057L26.419 2.187C26.5685 2.08031 26.7444 2.01683 26.9276 2.00353C27.1107 1.99023 27.294 2.02762 27.4573 2.1116C27.6206 2.19557 27.7577 2.3229 27.8534 2.47961C27.9491 2.63632 27.9998 2.81636 28 3V17C28 17.1837 27.9494 17.3639 27.8538 17.5208C27.7581 17.6776 27.6211 17.8051 27.4578 17.8892C27.2944 17.9733 27.1111 18.0107 26.9278 17.9975C26.7446 17.9842 26.5685 17.9207 26.419 17.814L21 13.944V18C20.9995 18.5303 20.7886 19.0387 20.4136 19.4136C20.0387 19.7886 19.5303 19.9995 19 20V20ZM2 2V18.001L19 18V12C19 11.8163 19.0506 11.6361 19.1462 11.4792C19.2419 11.3224 19.3789 11.1949 19.5422 11.1108C19.7056 11.0267 19.8889 10.9893 20.0722 11.0025C20.2554 11.0158 20.4315 11.0793 20.581 11.186L26 15.056V4.944L20.581 8.814C20.4315 8.92074 20.2554 8.98423 20.0722 8.99749C19.8889 9.01075 19.7056 8.97327 19.5422 8.88918C19.3789 8.80508 19.2419 8.6776 19.1462 8.52075C19.0506 8.3639 19 8.18372 19 8V2H2Z" fill="white"/>
</svg>
