<?xml version="1.0" encoding="UTF-8" standalone="no"?><svg width="28" height="28" viewBox="0 0 28 28" fill="none" xmlns="http://www.w3.org/2000/svg">
<path d="M12 19.946C11.3067 19.869 10.6247 19.7113 9.968 19.476C9.988 19.004 10 18.512 10 18V17.326C10.62 17.622 11.294 17.828 12 17.93V13C12 12.2043 12.3161 11.4412 12.8787 10.8786C13.4413 10.316 14.2044 9.99996 15 9.99996H19.93C19.7705 8.89173 19.3475 7.83793 18.6965 6.927C18.0455 6.01607 17.1854 5.2746 16.1886 4.76481C15.1917 4.25502 14.0871 3.99178 12.9675 3.9972C11.8479 4.00262 10.7459 4.27654 9.754 4.79596C9.5958 4.14182 9.33525 3.51678 8.982 2.94396C10.2785 2.29681 11.7122 1.97229 13.161 1.998C14.6099 2.02371 16.0311 2.39888 17.3038 3.09161C18.5766 3.78435 19.6633 4.77417 20.4715 5.97692C21.2797 7.17967 21.7855 8.55979 21.946 9.99996H25C25.7956 9.99996 26.5587 10.316 27.1213 10.8786C27.6839 11.4412 28 12.2043 28 13V23C28 23.7956 27.6839 24.5587 27.1213 25.1213C26.5587 25.6839 25.7956 26 25 26H15C14.2044 26 13.4413 25.6839 12.8787 25.1213C12.3161 24.5587 12 23.7956 12 23V19.946ZM21.946 12C21.7188 14.0292 20.8086 15.9209 19.3647 17.3647C17.9209 18.8085 16.0292 19.7187 14 19.946V23C14 23.2652 14.1054 23.5195 14.2929 23.7071C14.4804 23.8946 14.7348 24 15 24H25C25.2652 24 25.5196 23.8946 25.7071 23.7071C25.8946 23.5195 26 23.2652 26 23V13C26 12.7347 25.8946 12.4804 25.7071 12.2928C25.5196 12.1053 25.2652 12 25 12H21.946ZM19.93 12H15C14.7348 12 14.4804 12.1053 14.2929 12.2928C14.1054 12.4804 14 12.7347 14 13V17.93C15.496 17.7137 16.8818 17.0194 17.9506 15.9506C19.0194 14.8818 19.7138 13.4959 19.93 12V12ZM7.59 13.122C7.38 12.35 7.04 11.576 6.456 10.982C7.4 10.088 8 8.66396 8 6.99996C8 5.60596 7.718 4.64796 7.208 3.88196C6.9817 3.5525 6.72016 3.24871 6.428 2.97596C6.31603 2.86785 6.20269 2.76118 6.088 2.65596C5.966 2.54196 5.854 2.43796 5.708 2.29196C5.408 1.99196 5.374 1.75196 5.374 1.62596C5.37433 1.55592 5.38581 1.48638 5.408 1.41996C5.49944 1.22221 5.5238 1.00001 5.47737 0.787145C5.43095 0.574283 5.31627 0.382406 5.15079 0.240695C4.98531 0.0989838 4.77808 0.0151921 4.56061 0.0020624C4.34314 -0.0110673 4.12733 0.0471833 3.946 0.167956L3.942 0.169956L3.936 0.173956L3.918 0.185956L3.858 0.225956C3.558 0.439938 3.26897 0.668895 2.992 0.911956C2.492 1.35396 1.84 2.00796 1.378 2.78796C0.9747 3.43461 0.651021 4.12764 0.414 4.85196C0.174 5.56996 0 6.34796 0 6.99996C0 8.66396 0.6 10.086 1.544 10.984C0.96 11.576 0.62 12.35 0.41 13.124C8.9407e-08 14.628 0 16.488 0 17.926V18C0 22.116 0.77 24.56 1.642 26.014C2.08 26.742 2.536 27.212 2.918 27.508C3.12155 27.6667 3.34307 27.801 3.578 27.908C3.71386 27.9576 3.85582 27.9885 4 28C4.168 28 4.422 27.908 4.422 27.908C4.65693 27.801 4.87845 27.6667 5.082 27.508C5.462 27.212 5.922 26.742 6.358 26.014C7.23 24.562 8 22.116 8 18V17.928C8 16.488 8 14.63 7.59 13.122ZM2.974 12.382C3.2 12.154 3.502 12 4 12C4.5 12 4.8 12.156 5.026 12.38C5.278 12.634 5.496 13.046 5.66 13.648C5.992 14.87 6 16.474 6 18C6 21.884 5.27 23.94 4.642 24.986C4.402 25.386 4.176 25.644 4 25.806C3.74853 25.5641 3.5324 25.2881 3.358 24.986C2.73 23.938 2 21.884 2 18C2 16.474 2.008 14.87 2.34 13.648C2.504 13.048 2.722 12.634 2.974 12.38V12.382ZM4 9.99996C3.23 9.99996 2 9.14396 2 6.99996C2 6.65396 2.104 6.10596 2.312 5.48596C2.50155 4.90063 2.76287 4.34103 3.09 3.81996C3.264 3.52596 3.49 3.23996 3.734 2.97796C3.872 3.22196 4.054 3.46796 4.294 3.70796C4.44 3.85396 4.63 4.02996 4.792 4.18196L5.04 4.41396C5.25 4.61796 5.412 4.79596 5.542 4.99396C5.782 5.35196 6 5.89396 6 6.99996C6 9.14396 4.77 9.99996 4 9.99996Z" fill="white"/>
</svg>
