<?xml version="1.0" encoding="UTF-8" standalone="no"?><svg width="32" height="26" viewBox="0 0 32 26" fill="none" xmlns="http://www.w3.org/2000/svg">
<path d="M28.5 1.20003C28.1562 0.977597 27.763 0.843028 27.3549 0.808155C26.9469 0.773281 26.5366 0.839171 26.16 1.00003L13.82 5.86003C13.5278 5.97893 13.2154 6.04006 12.9 6.04003H5C4.33696 6.04003 3.70107 6.30343 3.23223 6.77227C2.76339 7.24111 2.5 7.87699 2.5 8.54003V8.74003H0V14.74H2.5V15C2.51567 15.6526 2.78596 16.2732 3.25311 16.7291C3.72027 17.1851 4.34722 17.4402 5 17.44L8 23.8C8.20314 24.2283 8.52296 24.5906 8.92272 24.8453C9.32249 25.1001 9.78599 25.2369 10.26 25.24H11.52C12.1796 25.2348 12.8103 24.969 13.2749 24.5008C13.7394 24.0325 14 23.3996 14 22.74V17.68L26.16 22.54C26.4591 22.6591 26.7781 22.7201 27.1 22.72C27.5994 22.712 28.0858 22.5591 28.5 22.28C28.829 22.0579 29.1003 21.7607 29.2916 21.4129C29.4829 21.0651 29.5886 20.6768 29.6 20.28V3.26003C29.5982 2.85307 29.497 2.4527 29.3053 2.0937C29.1136 1.7347 28.8372 1.42793 28.5 1.20003V1.20003ZM11.5 8.54003V15H5V8.54003H11.5ZM11.5 22.74H10.24L7.78 17.44H11.5V22.74ZM14.74 15.3C14.5025 15.1787 14.2549 15.0783 14 15V8.40003C14.2525 8.34794 14.5001 8.27434 14.74 8.18003L27.1 3.26003V20.22L14.74 15.3ZM29.66 9.24003V14.24C30.323 14.24 30.9589 13.9766 31.4278 13.5078C31.8966 13.039 32.16 12.4031 32.16 11.74C32.16 11.077 31.8966 10.4411 31.4278 9.97227C30.9589 9.50343 30.323 9.24003 29.66 9.24003V9.24003Z" fill="white"/>
</svg>
